<svg width="3000" height="3000" viewBox="0 0 3000 3000" fill="none" xmlns="http://www.w3.org/2000/svg">
<g clip-path="url(#clip0_158_162)">
<rect width="3000" height="3000" rx="52" fill="url(#paint0_linear_158_162)"/>
<path d="M2108.53 1483.05C2102.97 1460.84 2080.74 1444.18 2058.51 1444.18H1725.07L1941.81 794.586C1947.36 772.377 1941.81 744.617 1919.58 733.512C1897.35 716.856 1875.12 722.408 1852.89 733.512L908.146 1455.29C891.474 1471.94 880.359 1494.15 891.474 1516.36C902.589 1538.57 924.818 1555.23 947.047 1555.23H1280.49L1063.75 2204.82C1058.19 2227.03 1063.75 2254.79 1085.98 2265.9C1091.54 2271.45 1102.65 2277 1113.77 2277C1124.88 2277 1136 2271.45 1147.11 2265.9L2091.85 1544.12C2108.53 1527.46 2119.64 1505.26 2108.53 1483.05Z" fill="url(#paint1_linear_158_162)"/>
</g>
<defs>
<linearGradient id="paint0_linear_158_162" x1="3000" y1="3000" x2="-347.344" y2="2537.18" gradientUnits="userSpaceOnUse">
<stop/>
</linearGradient>
<linearGradient id="paint1_linear_158_162" x1="2113" y1="723" x2="887.167" y2="2277.13" gradientUnits="userSpaceOnUse">
<stop stop-color="#2DFBFA"/>
<stop offset="1" stop-color="#5D8FFD"/>
</linearGradient>
<clipPath id="clip0_158_162">
<rect width="3000" height="3000" rx="760" fill="white"/>
</clipPath>
</defs>
</svg>
